<svg width="179" height="25" viewBox="0 0 179 25" fill="none" xmlns="http://www.w3.org/2000/svg">
<path d="M0 0.449219H4.69442V7.66433L9.6338 0.449219H15.3487L7.06204 8.928L22.2475 0.449219V5.82998L8.61323 10.9254L22.2475 9.6617V14.7571L8.61323 13.4935L22.2475 18.5889V23.9697L7.06204 15.5317L15.3895 24.0104H9.6746L4.77606 16.7953V24.0104H0V0.449219Z" fill="black"/>
<path d="M25.5947 0.449219H31.1464L30.2891 15.6947L37.2287 0.449219H41.7599V23.9697H36.2082L37.0654 8.7242L30.1667 23.9697H25.6356V0.449219H25.5947Z" fill="black"/>
<path d="M45.1465 0.449219H50.6981V9.5394H55.4334V0.449219H60.985V23.9697H55.4334V13.2489H50.6981V24.0104H45.1465V0.449219Z" fill="black"/>
<path d="M63.5186 12.229C63.5186 5.50305 66.6209 0 72.8666 0C79.1122 0 82.1738 5.50305 82.1738 12.229C82.1738 18.955 79.0714 24.458 72.8666 24.458C66.6209 24.4988 63.5186 18.955 63.5186 12.229ZM72.8666 20.9931C75.0709 20.9931 76.3364 17.1206 76.3364 12.2698C76.3364 7.41893 75.0709 3.50565 72.8666 3.50565C70.6622 3.50565 69.3968 7.37816 69.3968 12.2698C69.3968 17.1206 70.6622 20.9931 72.8666 20.9931Z" fill="black"/>
<path d="M84.7432 0.449219H100.745V23.9697H95.1933V4.15868H90.2948V24.0104H84.7432V0.449219Z" fill="black"/>
<path d="M103.274 12.229C103.274 5.50305 106.377 0 112.622 0C118.868 0 121.97 5.50305 121.97 12.229C121.97 18.955 118.868 24.458 112.622 24.458C106.377 24.458 103.274 18.955 103.274 12.229ZM112.622 20.9931C114.827 20.9931 116.092 17.1206 116.092 12.2698C116.092 7.41893 114.827 3.50565 112.622 3.50565C110.418 3.50565 109.153 7.37816 109.153 12.2698C109.153 17.1614 110.418 20.9931 112.622 20.9931Z" fill="black"/>
<path d="M124.505 0.449219H130.057L129.199 15.6947L136.139 0.449219H140.67V23.9697H135.118L135.976 8.7242L129.077 23.9697H124.505V0.449219Z" fill="black"/>
<path d="M155.446 15.6951L160.711 16.5104L160.548 17.3256C159.65 21.6873 156.874 24.5 152.343 24.5C146.098 24.5 143.199 18.9969 143.199 12.271C143.199 5.54504 146.098 0.0419922 152.343 0.0419922C156.711 0.0419922 159.528 2.85466 160.507 6.931L160.671 7.62397L155.241 8.8469C154.833 5.58581 153.854 3.54764 152.343 3.54764C150.139 3.54764 149.077 7.42016 149.077 12.271C149.077 17.1218 150.139 20.9943 152.343 20.9943C154.017 20.9943 155.037 18.7931 155.446 15.6951Z" fill="black"/>
<path d="M163.039 0.449219H168.591V11.0477L173.122 0.449219H178.837L172.264 11.863L179 24.0104H172.754L168.55 13.412V24.0104H162.998L163.039 0.449219Z" fill="black"/>
</svg>
