<svg xmlns="http://www.w3.org/2000/svg" width="97" height="62" viewBox="0 0 97 62" fill="none">
<path fill-rule="evenodd" clip-rule="evenodd" d="M47.9062 9.71546C47.9062 9.44537 48.1792 9.2599 48.4319 9.35832L96.0809 27.9166L97 28.2735V28.2745L66.6755 40.039C61.2922 42.1274 61.2884 49.7081 66.6696 51.8018L72.2187 53.9609C72.4169 54.038 72.5147 54.2605 72.4373 54.4577C72.3598 54.655 72.1363 54.7524 71.9381 54.6753L50.3346 46.2696C50.0077 46.1424 50.0079 45.682 50.3349 45.5551L72.785 36.8456C80.6358 33.7999 80.6374 22.7432 72.7876 19.6951L57.1477 13.6222C53.074 12.0404 48.6768 15.0309 48.6768 19.3832V25.1835C48.6768 25.3953 48.5043 25.567 48.2915 25.567C48.0787 25.567 47.9062 25.3953 47.9062 25.1835V9.71546ZM48.683 10.2831C48.6817 10.2864 48.6768 10.2855 48.6768 10.282C48.6768 10.2798 48.6791 10.2782 48.6811 10.279C48.6828 10.2797 48.6836 10.2815 48.683 10.2831Z" fill="white"/>
<path d="M0 28.2746L30.0877 40.0537C35.4398 42.149 35.4436 49.6865 30.0936 51.7871L24.5589 53.9603C24.361 54.038 24.2638 54.2607 24.3419 54.4577C24.42 54.6548 24.6437 54.7515 24.8417 54.6738L46.2471 46.2692C46.5725 46.1414 46.5723 45.683 46.2467 45.5555L23.9376 36.8217C16.1265 33.7638 16.1191 22.7639 23.926 19.6955L44.819 11.2614C45.017 11.1837 45.114 10.9609 45.0359 10.7639C44.9577 10.5669 44.7339 10.4702 44.536 10.548L43.9967 10.76L43.9955 10.7595L43.9943 10.759L0 28.2746Z" fill="white"/>
<path d="M38.2093 28.8907C43.5647 28.8907 47.9062 33.2119 47.9062 38.5423V61.6165C47.9062 61.8283 48.0787 62 48.2915 62C48.5043 62 48.6768 61.8283 48.6768 61.6165V38.5423C48.6768 33.2119 53.0182 28.8907 58.3736 28.8907H67.6852C67.898 28.8907 68.0705 28.719 68.0705 28.5072C68.0705 28.2954 67.898 28.1237 67.6852 28.1237H58.3736C53.0182 28.1237 48.6768 23.8026 48.6768 18.4722V0.383505C48.6768 0.171701 48.5043 0 48.2915 0C48.0787 0 47.9062 0.171701 47.9062 0.383505V18.4722C47.9062 23.8026 43.5647 28.1237 38.2093 28.1237H28.8978C28.685 28.1237 28.5125 28.2954 28.5125 28.5072C28.5125 28.719 28.685 28.8907 28.8978 28.8907H38.2093Z" fill="white"/>
</svg>