<svg width="1368" height="8" viewBox="0 0 1368 8" fill="none" xmlns="http://www.w3.org/2000/svg">
  <path d="M0 0H1V8H0V0Z" fill="white"/>
  <path d="M36 0H37V8H36V0Z" fill="white"/>
  <path d="M72 0H73V8H72V0Z" fill="white"/>
  <path d="M108 0H109V8H108V0Z" fill="white"/>
  <path d="M144 0H145V8H144V0Z" fill="white"/>
  <path d="M180 0H181V8H180V0Z" fill="white"/>
  <path d="M216 0H217V8H216V0Z" fill="white"/>
  <path d="M252 0H253V8H252V0Z" fill="white"/>
  <path d="M288 0H289V8H288V0Z" fill="white"/>
  <path d="M324 0H325V8H324V0Z" fill="white"/>
  <path d="M360 0H361V8H360V0Z" fill="white"/>
  <path d="M396 0H397V8H396V0Z" fill="white"/>
  <path d="M432 0H433V8H432V0Z" fill="white"/>
  <path d="M468 0H469V8H468V0Z" fill="white"/>
  <path d="M504 0H505V8H504V0Z" fill="white"/>
  <path d="M540 0H541V8H540V0Z" fill="white"/>
  <path d="M576 0H577V8H576V0Z" fill="white"/>
  <path d="M612 0H613V8H612V0Z" fill="white"/>
  <path d="M648 0H649V8H648V0Z" fill="white"/>
  <path d="M684 0H685V8H684V0Z" fill="white"/>
  <path d="M720 0H721V8H720V0Z" fill="white"/>
  <path d="M756 0H757V8H756V0Z" fill="white"/>
  <path d="M792 0H793V8H792V0Z" fill="white"/>
  <path d="M828 0H829V8H828V0Z" fill="white"/>
  <path d="M864 0H865V8H864V0Z" fill="white"/>
  <path d="M900 0H901V8H900V0Z" fill="white"/>
  <path d="M936 0H937V8H936V0Z" fill="white"/>
  <path d="M972 0H973V8H972V0Z" fill="white"/>
  <path d="M1008 0H1009V8H1008V0Z" fill="white"/>
  <path d="M1044 0H1045V8H1044V0Z" fill="white"/>
  <path d="M1080 0H1081V8H1080V0Z" fill="white"/>
  <path d="M1116 0H1117V8H1116V0Z" fill="white"/>
  <path d="M1152 0H1153V8H1152V0Z" fill="white"/>
  <path d="M1188 0H1189V8H1188V0Z" fill="white"/>
  <path d="M1224 0H1225V8H1224V0Z" fill="white"/>
  <path d="M1260 0H1261V8H1260V0Z" fill="white"/>
  <path d="M1296 0H1297V8H1296V0Z" fill="white"/>
  <path d="M1332 0H1333V8H1332V0Z" fill="white"/>
</svg>
