<svg width="121" height="23" viewBox="0 0 121 23" fill="none" xmlns="http://www.w3.org/2000/svg">
<path fill-rule="evenodd" clip-rule="evenodd" d="M110.69 5.47148C111.683 5.82903 112.461 6.43539 112.631 7.51534C112.696 7.93609 112.68 8.36866 112.663 8.80664C112.655 9.00639 112.647 9.20727 112.647 9.40865C108.657 8.07675 107.773 7.88438 104.686 8.33811C99.8047 9.05528 97.3586 12.6087 98.2233 17.3655C98.7553 20.2887 101.643 22.7663 105.404 22.9734C108.761 23.1584 111.815 22.4192 113.949 19.4094C113.962 19.5112 113.971 19.6025 113.979 19.6864V19.6895C113.996 19.8514 114.01 19.9866 114.037 20.1182C114.255 21.1218 114.713 21.9718 115.708 22.4308C117.475 23.2482 119.261 23.0214 121 22.5907V19.1083C119.239 18.8521 119.084 18.687 118.974 16.9955C118.953 16.6787 118.915 15.9991 118.915 15.6813V8.3632C118.915 8.3632 118.921 7.14524 118.772 6.34025C118.166 3.08264 115.976 1.31164 112.856 0.535923C109.897 -0.199028 106.906 -0.116438 103.92 0.411515C102.525 0.659285 101.167 1.02729 99.814 1.688C100.092 3.19032 100.366 4.6759 100.651 6.22525C102.188 5.43071 103.783 5.10244 105.432 4.96862C107.217 4.82331 108.982 4.85676 110.69 5.47148ZM109.119 12.3589C110.337 12.5105 111.5 12.8732 112.526 13.5643C112.706 15.5642 111.986 16.7769 110.148 17.5453C109.124 17.9729 108.048 18.1381 106.939 18.0335C105.789 17.927 104.813 17.191 104.536 16.251C104.175 15.029 104.547 13.8434 105.532 13.097C106.606 12.2836 107.854 12.201 109.119 12.3589ZM26.6067 20.045C28.988 22.1077 31.8576 23.0182 35.0495 22.9995C38.302 22.966 41.207 22.0387 43.5759 19.813C46.2452 17.3049 47.1068 14.1612 46.9139 10.6715C46.6948 6.70408 44.9183 3.58759 41.3218 1.59811C38.4699 0.0215663 35.3708 -0.346432 32.1507 0.309065C29.5868 0.830743 27.39 1.97865 25.6637 3.9075C23.7392 6.05904 22.9714 8.60575 22.9485 11.4054C22.9224 14.7801 23.9655 17.7575 26.6067 20.045ZM29.8006 9.43376C30.5255 7.11495 32.4229 5.70673 35.1267 5.64192C37.0867 5.66491 38.7556 6.53054 39.6924 8.46567C40.7866 10.7249 40.7606 13.006 39.3888 15.1419C38.183 17.0174 36.2877 17.7273 34.0815 17.3917C31.9035 17.0592 30.4734 15.7848 29.8278 13.7096C29.3834 12.2804 29.3552 10.8629 29.8006 9.43376ZM83.4486 13.5909H80.3192V23L74.0606 22.9801V0.000128158H80.3192V8.36372C80.7464 8.36189 81.172 8.38682 81.5935 8.41152C82.6121 8.4712 83.6058 8.52943 84.5354 8.20481C86.2139 7.61832 87.3883 6.461 87.8609 4.72869C87.9076 4.55764 87.9541 4.39164 87.9997 4.22874L88.0002 4.22683C88.3587 2.94536 88.6641 1.85403 88.6641 0.000128158H94.7099C94.8372 4.72556 93.9214 8.88748 89.5142 11.4812C89.5677 11.5833 89.6178 11.6815 89.6663 11.7766L89.6685 11.781C89.7761 11.9916 89.8758 12.1873 89.9867 12.3751C90.6232 13.4656 91.2611 14.5551 91.8989 15.6447L91.9025 15.6509L91.908 15.6601L91.9157 15.6736C93.0848 17.6704 94.2539 19.6675 95.4151 21.6701C95.5594 21.9193 95.6613 22.1948 95.776 22.5049C95.8338 22.6609 95.8947 22.8255 95.9659 23H89.1784C87.7001 20.3671 86.1964 17.6893 84.6918 15.0098L84.6806 14.9896L83.9597 13.706L83.4486 13.5909ZM69.8887 0.000128158H63.6968L63.6228 9.41544C62.1102 10.3773 61.2612 10.7327 59.806 10.7118C57.4496 10.6772 55.2851 8.73485 55.2851 6.27282V1.04557V0.000128158H49.026C49.026 3.13634 49.0265 6.27282 49.3436 8.57908C49.6607 10.8885 50.7091 12.924 52.499 14.4419C54.8137 16.4042 57.5164 16.7545 60.3546 16.3698C61.0865 16.2703 61.8074 16.0851 62.555 15.8929C62.9081 15.8022 63.2672 15.7099 63.6362 15.6243V23H69.8887V0.000128158ZM13.5604 23H7.30175V6.27282H0V0.000128158H20.8622V6.27282H13.5604V23Z" fill="black"/>
</svg>
