<?xml version="1.0" standalone="no"?>
<!DOCTYPE svg PUBLIC "-//W3C//DTD SVG 20010904//EN"
 "http://www.w3.org/TR/2001/REC-SVG-20010904/DTD/svg10.dtd">
<svg version="1.0" xmlns="http://www.w3.org/2000/svg"
 width="700.000000pt" height="700.000000pt" viewBox="0 0 700.000000 700.000000"
 preserveAspectRatio="xMidYMid meet">
<metadata>
Created by potrace 1.14, written by Peter Selinger 2001-2017
</metadata>
<g transform="translate(0.000000,700.000000) scale(0.100000,-0.100000)"
fill="#000000" stroke="none">
<path d="M3471 5437 c-8 -8 -11 -190 -11 -646 0 -705 0 -704 -66 -837 -80
-163 -228 -284 -404 -330 -54 -15 -120 -18 -405 -20 -187 -1 -346 -2 -353 -3
-8 -1 -12 -10 -10 -23 l3 -23 340 -1 c383 -1 418 -6 545 -66 110 -52 227 -167
279 -273 74 -152 70 -107 71 -996 0 -439 3 -805 6 -813 3 -9 15 -16 25 -16 18
0 19 22 19 783 1 430 3 800 6 822 23 191 142 375 305 473 32 19 170 76 177 72
1 0 19 2 39 6 20 4 186 7 370 7 339 0 364 3 343 37 -7 12 -66 15 -362 15 -306
1 -361 4 -413 19 -169 50 -319 174 -394 327 -43 89 -69 195 -65 266 7 134 100
264 233 327 60 28 75 31 161 30 94 0 96 -1 285 -76 105 -42 300 -119 435 -173
556 -220 542 -213 643 -318 38 -40 70 -86 96 -141 69 -145 81 -250 46 -431
-10 -55 -83 -189 -134 -246 -76 -85 -154 -129 -396 -224 -121 -48 -229 -90
-240 -95 -11 -5 -67 -28 -125 -50 -58 -22 -114 -45 -125 -50 -11 -5 -85 -34
-165 -65 -164 -64 -360 -141 -405 -160 -16 -7 -68 -27 -115 -45 -122 -47 -134
-64 -67 -94 18 -8 280 -112 582 -232 303 -119 604 -238 670 -265 84 -33 124
-44 132 -37 26 21 -10 45 -159 102 -306 117 -361 156 -428 302 -32 69 -39 211
-15 285 34 103 110 197 197 241 18 10 159 67 313 128 154 60 289 114 300 119
11 5 223 89 470 187 248 97 545 214 660 260 116 46 217 84 224 84 39 0 -11 29
-134 76 -77 30 -149 59 -160 64 -11 5 -45 19 -75 30 -30 11 -64 25 -75 30 -11
5 -128 52 -260 104 -132 52 -508 201 -835 331 -327 130 -808 320 -1067 423
l-472 187 -1 306 c0 251 -2 308 -14 312 -7 3 -19 0 -25 -6z"/>
<path d="M3015 4661 c-132 -54 -321 -131 -420 -170 -99 -40 -193 -79 -210 -86
-16 -7 -52 -22 -80 -33 -67 -27 -889 -360 -1040 -422 -66 -27 -244 -99 -395
-161 -151 -61 -288 -117 -305 -124 -16 -7 -63 -26 -103 -42 l-72 -30 447 -178
c247 -98 466 -186 488 -196 22 -9 168 -67 325 -129 157 -62 299 -119 315 -126
17 -7 111 -45 210 -84 186 -74 234 -99 280 -147 159 -165 159 -425 0 -585 -54
-55 -103 -81 -265 -145 -63 -25 -133 -53 -155 -63 -22 -10 -49 -20 -60 -22
-23 -4 -34 -47 -13 -49 22 -2 42 2 73 16 17 8 323 131 680 274 504 202 651
265 653 279 4 23 78 -9 -767 327 -382 152 -713 286 -735 297 -195 98 -321 316
-315 547 5 230 125 421 324 520 44 22 143 65 220 97 77 31 154 62 170 70 17 7
98 40 180 74 187 76 291 119 330 135 17 8 82 34 145 60 63 25 129 52 145 60
17 7 66 28 110 45 96 38 116 53 95 74 -13 13 -45 2 -255 -83z"/>
</g>
</svg>
